<svg fill="none" height="34" viewBox="0 0 34 34" width="34" xmlns="http://www.w3.org/2000/svg">
    <rect height="33" rx="8.5" stroke="#EE3B34" width="33" x="0.5" y="0.5" />
    <g clip-path="url(#clip0_1_5)">
        <path
            d="M20.4465 24.9998C20.3588 25.0003 20.2718 24.9835 20.1906 24.9503C20.1094 24.9171 20.0355 24.8682 19.9732 24.8064L14.5265 19.3598C14.2161 19.0501 13.9698 18.6823 13.8018 18.2773C13.6337 17.8724 13.5472 17.4382 13.5472 16.9998C13.5472 16.5613 13.6337 16.1272 13.8018 15.7222C13.9698 15.3173 14.2161 14.9494 14.5265 14.6398L19.9732 9.19313C20.0354 9.13097 20.1092 9.08167 20.1904 9.04802C20.2716 9.01438 20.3586 8.99707 20.4465 8.99707C20.5344 8.99707 20.6215 9.01438 20.7027 9.04802C20.7839 9.08167 20.8577 9.13097 20.9199 9.19313C20.982 9.25529 21.0313 9.32908 21.065 9.4103C21.0986 9.49151 21.1159 9.57856 21.1159 9.66646C21.1159 9.75437 21.0986 9.84142 21.065 9.92263C21.0313 10.0038 20.982 10.0776 20.9199 10.1398L15.4732 15.5865C15.0987 15.9615 14.8883 16.4698 14.8883 16.9998C14.8883 17.5298 15.0987 18.0381 15.4732 18.4131L20.9199 23.8598C20.9824 23.9218 21.0319 23.9955 21.0658 24.0767C21.0996 24.158 21.1171 24.2451 21.1171 24.3331C21.1171 24.4211 21.0996 24.5083 21.0658 24.5895C21.0319 24.6707 20.9824 24.7445 20.9199 24.8064C20.8576 24.8682 20.7837 24.9171 20.7025 24.9503C20.6212 24.9835 20.5343 25.0003 20.4465 24.9998Z"
            fill="#EE3B34" />
    </g>
    <defs>
        <clipPath id="clip0_1_5">
            <rect fill="white" height="16" transform="translate(9 9)" width="16" />
        </clipPath>
    </defs>
</svg>
