<svg fill="none" height="14" viewBox="0 0 14 14" width="14" xmlns="http://www.w3.org/2000/svg">
    <g clip-path="url(#clip0_767_8509)">
        <path
            d="M12.1917 2.50276C11.9862 1.94055 11.6131 1.45497 11.1228 1.11164C10.6325 0.768317 10.0486 0.583792 9.45 0.583008H4.55C3.95143 0.583792 3.36753 0.768317 2.87721 1.11164C2.38689 1.45497 2.01379 1.94055 1.80834 2.50276L0.233336 6.83517C0.0784315 7.26187 -0.000539427 7.7124 2.77309e-06 8.16634V8.74967C0.00104363 9.20047 0.107005 9.64484 0.309499 10.0476C0.511993 10.4504 0.80546 10.8005 1.16667 11.0702C1.16667 11.0748 1.16667 11.0783 1.16667 11.083V12.2497C1.16667 12.7138 1.35104 13.1589 1.67923 13.4871C2.00742 13.8153 2.45254 13.9997 2.91667 13.9997C3.3808 13.9997 3.82592 13.8153 4.15411 13.4871C4.4823 13.1589 4.66667 12.7138 4.66667 12.2497V11.6663H9.33334V12.2497C9.33334 12.7138 9.51771 13.1589 9.8459 13.4871C10.1741 13.8153 10.6192 13.9997 11.0833 13.9997C11.5475 13.9997 11.9926 13.8153 12.3208 13.4871C12.649 13.1589 12.8333 12.7138 12.8333 12.2497V11.083C12.8333 11.0783 12.8333 11.0748 12.8333 11.0702C13.1945 10.8005 13.488 10.4504 13.6905 10.0476C13.893 9.64484 13.999 9.20047 14 8.74967V8.16634C14.0006 7.71258 13.9216 7.26224 13.7667 6.83576L12.1917 2.50276ZM2.90617 2.90176C3.02951 2.56469 3.25322 2.27354 3.54714 2.06754C3.84107 1.86154 4.19108 1.7506 4.55 1.74967H9.45C9.80913 1.75036 10.1594 1.86119 10.4536 2.0672C10.7477 2.27322 10.9716 2.5645 11.095 2.90176L12.3713 6.41634H1.62809L2.90617 2.90176ZM3.5 12.2497C3.5 12.4044 3.43854 12.5528 3.32915 12.6622C3.21975 12.7715 3.07138 12.833 2.91667 12.833C2.76196 12.833 2.61359 12.7715 2.50419 12.6622C2.39479 12.5528 2.33334 12.4044 2.33334 12.2497V11.608C2.52533 11.647 2.72076 11.6665 2.91667 11.6663H3.5V12.2497ZM11.6667 12.2497C11.6667 12.4044 11.6052 12.5528 11.4958 12.6622C11.3864 12.7715 11.238 12.833 11.0833 12.833C10.9286 12.833 10.7803 12.7715 10.6709 12.6622C10.5615 12.5528 10.5 12.4044 10.5 12.2497V11.6663H11.0833C11.2792 11.6665 11.4747 11.647 11.6667 11.608V12.2497ZM12.8333 8.74967C12.8333 9.2138 12.649 9.65892 12.3208 9.98711C11.9926 10.3153 11.5475 10.4997 11.0833 10.4997H2.91667C2.45254 10.4997 2.00742 10.3153 1.67923 9.98711C1.35104 9.65892 1.16667 9.2138 1.16667 8.74967V8.16634C1.16905 7.96992 1.19271 7.77433 1.23725 7.58301H2.33334V8.16634C2.33334 8.32105 2.39479 8.46942 2.50419 8.57882C2.61359 8.68822 2.76196 8.74967 2.91667 8.74967C3.07138 8.74967 3.21975 8.68822 3.32915 8.57882C3.43854 8.46942 3.5 8.32105 3.5 8.16634V7.58301H10.5V8.16634C10.5 8.32105 10.5615 8.46942 10.6709 8.57882C10.7803 8.68822 10.9286 8.74967 11.0833 8.74967C11.238 8.74967 11.3864 8.68822 11.4958 8.57882C11.6052 8.46942 11.6667 8.32105 11.6667 8.16634V7.58301H12.7628C12.8073 7.77432 12.831 7.96991 12.8333 8.16634V8.74967Z"
            fill="#A78227" />
    </g>
    <defs>
        <clipPath id="clip0_767_8509">
            <rect fill="white" height="14" width="14" />
        </clipPath>
    </defs>
</svg>
