<svg fill="none" height="22" viewBox="0 0 20 22" width="20" xmlns="http://www.w3.org/2000/svg">
    <path
        d="M19.0347 1.01929C18.924 0.859253 18.7144 0.801622 18.5373 0.882694L5.34597 6.92483C5.17435 7.00344 5.08062 7.19101 5.12088 7.37548C5.1611 7.55992 5.32439 7.69144 5.51323 7.69144H9.63355L1.93356 13.1662C1.79117 13.2675 1.73061 13.4492 1.78376 13.6156C1.8369 13.782 1.99155 13.895 2.16627 13.895H5.95092L1.27511 20.5208C1.16497 20.6769 1.18008 20.889 1.31117 21.0279C1.3893 21.1107 1.49576 21.1539 1.60333 21.1539C1.67627 21.1539 1.7498 21.134 1.81537 21.0932L16.1771 12.1529C16.3654 12.0357 16.423 11.7881 16.3058 11.5998C16.2377 11.4903 16.1254 11.4254 16.0064 11.4129C16.0034 11.4126 16.0002 11.4124 15.9971 11.4122C15.9884 11.4114 15.9798 11.4109 15.9711 11.4108C15.9691 11.4107 15.9675 11.4104 15.9655 11.4104L12.0112 11.4049L18.246 6.28664C18.3772 6.179 18.4265 6.00055 18.3693 5.84086C18.3121 5.68122 18.1608 5.57472 17.9913 5.57472L14.9068 5.57655L18.9872 1.53298C19.1255 1.39594 19.1455 1.17946 19.0347 1.01929ZM6.32415 17.3406L3.07496 19.3632L6.32415 14.7589V16.0497V17.3406ZM10.4896 11.8039V14.7475L7.12722 16.8407V13.4935C7.12722 13.4876 7.12658 13.4818 7.12634 13.4759C7.12615 13.4709 7.12599 13.4661 7.12559 13.4611C7.12289 13.4275 7.11607 13.3951 7.1056 13.3643C7.10445 13.3609 7.1031 13.3574 7.10183 13.354C7.09672 13.3403 7.09096 13.3269 7.08446 13.3139C7.08363 13.3122 7.08311 13.3104 7.08224 13.3087L7.08109 13.3068C7.07332 13.292 7.06463 13.2778 7.05511 13.2642C7.05297 13.2611 7.05063 13.2583 7.04841 13.2552C7.04067 13.2448 7.03242 13.2347 7.0237 13.225C7.02072 13.2217 7.01783 13.2184 7.01477 13.2152C7.00367 13.2037 6.99204 13.1926 6.97963 13.1825C6.97796 13.1812 6.97626 13.1801 6.97459 13.1788C6.96333 13.1698 6.95155 13.1616 6.93933 13.1539C6.93588 13.1517 6.93239 13.1496 6.92886 13.1475C6.91609 13.1401 6.90296 13.1332 6.8894 13.1271L6.88531 13.1251C6.87004 13.1185 6.85421 13.1129 6.83803 13.1082C6.83486 13.1073 6.83165 13.1066 6.82843 13.1057C6.81546 13.1023 6.80225 13.0995 6.78877 13.0974C6.78452 13.0967 6.78028 13.096 6.776 13.0954C6.75946 13.0933 6.74276 13.0919 6.72562 13.0919H3.42392L8.21201 9.68743V12.0353C8.21201 12.2571 8.39181 12.4369 8.61357 12.4369C8.83532 12.4369 9.01512 12.2571 9.01512 12.0353V9.11643L10.4897 8.06797L10.4896 11.8039ZM14.5633 12.2116L11.2928 14.2475V12.207L14.5633 12.2116ZM16.8685 6.3785L14.3322 8.46064V6.38001L16.8685 6.3785ZM13.648 5.69348C13.6354 5.70601 13.6235 5.72017 13.6126 5.73425C13.6101 5.7375 13.6076 5.74075 13.6053 5.74409C13.5949 5.75836 13.5853 5.77316 13.5769 5.78879L13.5761 5.79041C13.568 5.80556 13.5612 5.82139 13.5552 5.83761C13.5539 5.8409 13.5527 5.84416 13.5515 5.84749C13.5403 5.88013 13.5331 5.9146 13.5306 5.95042C13.5303 5.9551 13.5301 5.95978 13.5299 5.96446C13.5297 5.96922 13.5292 5.9739 13.5292 5.9787V9.11992L11.2928 10.9558V7.29417V7.28993L11.2926 7.28477C11.2924 7.27462 11.2919 7.26443 11.291 7.25423C11.2907 7.25003 11.2902 7.24582 11.2897 7.24166C11.2887 7.23381 11.2875 7.22595 11.2861 7.21814C11.2853 7.21334 11.2844 7.2085 11.2834 7.20378C11.2818 7.19664 11.2798 7.1895 11.2778 7.18236C11.2765 7.1776 11.2754 7.1728 11.2739 7.16816C11.2705 7.15745 11.2665 7.14659 11.2623 7.13631C11.2604 7.13187 11.2582 7.12755 11.2563 7.12322C11.2532 7.11652 11.2501 7.1099 11.2467 7.10343C11.2445 7.09923 11.2421 7.09506 11.2397 7.09094C11.236 7.08439 11.2321 7.07793 11.228 7.07162C11.2256 7.06797 11.2233 7.06436 11.2208 7.06083C11.2159 7.05385 11.2108 7.04711 11.2055 7.04053C11.2034 7.03787 11.2014 7.03517 11.1993 7.03263C11.184 7.01435 11.1672 6.99757 11.1491 6.98242C11.1462 6.97996 11.1432 6.97774 11.1402 6.97536C11.1339 6.9704 11.1276 6.96564 11.1211 6.96108C11.1173 6.95842 11.1135 6.95588 11.1096 6.95339C11.1034 6.94942 11.0972 6.94565 11.0908 6.94196C11.0867 6.93958 11.0827 6.9372 11.0785 6.93498C11.071 6.93106 11.0634 6.92748 11.0557 6.92403C11.0513 6.92201 11.0468 6.92007 11.0424 6.9182C11.0332 6.91448 11.0239 6.91106 11.0144 6.90797C11.0099 6.90654 11.0052 6.90531 11.0006 6.904C10.9935 6.90198 10.9864 6.90008 10.979 6.89845C10.9743 6.89742 10.9695 6.89643 10.9647 6.89552C10.9568 6.89409 10.9489 6.89286 10.9409 6.89187C10.9367 6.89135 10.9326 6.89076 10.9284 6.89036C10.9161 6.88925 10.9037 6.88846 10.8912 6.88846H7.35405L16.8152 2.55483L13.648 5.69348Z"
        fill="black" stroke="black" stroke-width="0.6" />
</svg>
