<svg fill="none" height="17" viewBox="0 0 16 17" width="16" xmlns="http://www.w3.org/2000/svg">
    <g clip-path="url(#clip0_491_10370)">
        <path
            d="M14.0002 3.16667H11.9335C11.7788 2.41428 11.3694 1.73823 10.7743 1.25248C10.1793 0.766727 9.43497 0.50097 8.66683 0.5L7.3335 0.5C6.56536 0.50097 5.82104 0.766727 5.226 1.25248C4.63095 1.73823 4.22156 2.41428 4.06683 3.16667H2.00016C1.82335 3.16667 1.65378 3.2369 1.52876 3.36193C1.40373 3.48695 1.3335 3.65652 1.3335 3.83333C1.3335 4.01014 1.40373 4.17971 1.52876 4.30474C1.65378 4.42976 1.82335 4.5 2.00016 4.5H2.66683V13.1667C2.66789 14.0504 3.01942 14.8976 3.64431 15.5225C4.2692 16.1474 5.11643 16.4989 6.00016 16.5H10.0002C10.8839 16.4989 11.7311 16.1474 12.356 15.5225C12.9809 14.8976 13.3324 14.0504 13.3335 13.1667V4.5H14.0002C14.177 4.5 14.3465 4.42976 14.4716 4.30474C14.5966 4.17971 14.6668 4.01014 14.6668 3.83333C14.6668 3.65652 14.5966 3.48695 14.4716 3.36193C14.3465 3.2369 14.177 3.16667 14.0002 3.16667ZM7.3335 1.83333H8.66683C9.08035 1.83384 9.48358 1.96225 9.82124 2.20096C10.1589 2.43967 10.4144 2.77699 10.5528 3.16667H5.4475C5.58588 2.77699 5.84143 2.43967 6.17909 2.20096C6.51674 1.96225 6.91998 1.83384 7.3335 1.83333ZM12.0002 13.1667C12.0002 13.6971 11.7894 14.2058 11.4144 14.5809C11.0393 14.956 10.5306 15.1667 10.0002 15.1667H6.00016C5.46973 15.1667 4.96102 14.956 4.58595 14.5809C4.21088 14.2058 4.00016 13.6971 4.00016 13.1667V4.5H12.0002V13.1667Z"
            fill="#EE3B34" />
        <path
            d="M6.66667 12.4993C6.84348 12.4993 7.01304 12.4291 7.13807 12.3041C7.26309 12.1791 7.33333 12.0095 7.33333 11.8327V7.83268C7.33333 7.65587 7.26309 7.4863 7.13807 7.36128C7.01304 7.23625 6.84348 7.16602 6.66667 7.16602C6.48985 7.16602 6.32029 7.23625 6.19526 7.36128C6.07024 7.4863 6 7.65587 6 7.83268V11.8327C6 12.0095 6.07024 12.1791 6.19526 12.3041C6.32029 12.4291 6.48985 12.4993 6.66667 12.4993Z"
            fill="#EE3B34" />
        <path
            d="M9.33317 12.4993C9.50999 12.4993 9.67956 12.4291 9.80458 12.3041C9.92961 12.1791 9.99985 12.0095 9.99985 11.8327V7.83268C9.99985 7.65587 9.92961 7.4863 9.80458 7.36128C9.67956 7.23625 9.50999 7.16602 9.33317 7.16602C9.15636 7.16602 8.98679 7.23625 8.86177 7.36128C8.73674 7.4863 8.6665 7.65587 8.6665 7.83268V11.8327C8.6665 12.0095 8.73674 12.1791 8.86177 12.3041C8.98679 12.4291 9.15636 12.4993 9.33317 12.4993Z"
            fill="#EE3B34" />
    </g>
    <defs>
        <clipPath id="clip0_491_10370">
            <rect fill="white" height="16" transform="translate(0 0.5)" width="16" />
        </clipPath>
    </defs>
</svg>
