<svg fill="none" height="14" viewBox="0 0 14 14" width="14" xmlns="http://www.w3.org/2000/svg">
    <g clip-path="url(#clip0_767_8526)">
        <path
            d="M11.0833 1.76283C11.0833 1.75817 11.0833 1.75467 11.0833 1.75V0.583333C11.0833 0.428624 11.0219 0.280251 10.9125 0.170854C10.8031 0.0614582 10.6547 0 10.5 0C10.3453 0 10.1969 0.0614582 10.0875 0.170854C9.97812 0.280251 9.91667 0.428624 9.91667 0.583333V1.225C9.72467 1.18601 9.52924 1.16647 9.33333 1.16667H8.75V0.583333C8.75 0.428624 8.68854 0.280251 8.57915 0.170854C8.46975 0.0614582 8.32138 0 8.16667 0C8.01196 0 7.86358 0.0614582 7.75419 0.170854C7.64479 0.280251 7.58333 0.428624 7.58333 0.583333V1.16667H6.41667V0.583333C6.41667 0.428624 6.35521 0.280251 6.24581 0.170854C6.13642 0.0614582 5.98804 0 5.83333 0C5.67862 0 5.53025 0.0614582 5.42085 0.170854C5.31146 0.280251 5.25 0.428624 5.25 0.583333V1.16667H4.66667C4.47076 1.16647 4.27533 1.18601 4.08333 1.225V0.583333C4.08333 0.428624 4.02187 0.280251 3.91248 0.170854C3.80308 0.0614582 3.65471 0 3.5 0C3.34529 0 3.19692 0.0614582 3.08752 0.170854C2.97812 0.280251 2.91667 0.428624 2.91667 0.583333V1.75V1.76283C2.55546 2.03255 2.26199 2.38265 2.0595 2.78541C1.857 3.18817 1.75104 3.63254 1.75 4.08333V11.0833C1.75093 11.8566 2.05851 12.5979 2.60529 13.1447C3.15208 13.6915 3.8934 13.9991 4.66667 14H9.33333C10.1066 13.9991 10.8479 13.6915 11.3947 13.1447C11.9415 12.5979 12.2491 11.8566 12.25 11.0833V4.08333C12.249 3.63254 12.143 3.18817 11.9405 2.78541C11.738 2.38265 11.4445 2.03255 11.0833 1.76283ZM11.0833 11.0833C11.0833 11.5475 10.899 11.9926 10.5708 12.3208C10.2426 12.649 9.79746 12.8333 9.33333 12.8333H4.66667C4.20254 12.8333 3.75742 12.649 3.42923 12.3208C3.10104 11.9926 2.91667 11.5475 2.91667 11.0833V4.08333C2.91667 3.6192 3.10104 3.17409 3.42923 2.8459C3.75742 2.51771 4.20254 2.33333 4.66667 2.33333H9.33333C9.79746 2.33333 10.2426 2.51771 10.5708 2.8459C10.899 3.17409 11.0833 3.6192 11.0833 4.08333V11.0833ZM9.91667 4.66667C9.91667 4.82138 9.85521 4.96975 9.74581 5.07915C9.63642 5.18854 9.48804 5.25 9.33333 5.25H4.66667C4.51196 5.25 4.36358 5.18854 4.25419 5.07915C4.14479 4.96975 4.08333 4.82138 4.08333 4.66667C4.08333 4.51196 4.14479 4.36358 4.25419 4.25419C4.36358 4.14479 4.51196 4.08333 4.66667 4.08333H9.33333C9.48804 4.08333 9.63642 4.14479 9.74581 4.25419C9.85521 4.36358 9.91667 4.51196 9.91667 4.66667ZM9.91667 7C9.91667 7.15471 9.85521 7.30308 9.74581 7.41248C9.63642 7.52187 9.48804 7.58333 9.33333 7.58333H4.66667C4.51196 7.58333 4.36358 7.52187 4.25419 7.41248C4.14479 7.30308 4.08333 7.15471 4.08333 7C4.08333 6.84529 4.14479 6.69692 4.25419 6.58752C4.36358 6.47812 4.51196 6.41667 4.66667 6.41667H9.33333C9.48804 6.41667 9.63642 6.47812 9.74581 6.58752C9.85521 6.69692 9.91667 6.84529 9.91667 7ZM7.58333 9.33333C7.58333 9.48804 7.52187 9.63642 7.41248 9.74581C7.30308 9.85521 7.15471 9.91667 7 9.91667H4.66667C4.51196 9.91667 4.36358 9.85521 4.25419 9.74581C4.14479 9.63642 4.08333 9.48804 4.08333 9.33333C4.08333 9.17862 4.14479 9.03025 4.25419 8.92085C4.36358 8.81146 4.51196 8.75 4.66667 8.75H7C7.15471 8.75 7.30308 8.81146 7.41248 8.92085C7.52187 9.03025 7.58333 9.17862 7.58333 9.33333Z"
            fill="#A78227" />
    </g>
    <defs>
        <clipPath id="clip0_767_8526">
            <rect fill="white" height="14" width="14" />
        </clipPath>
    </defs>
</svg>
