<svg fill="none" height="17" viewBox="0 0 16 17" width="16" xmlns="http://www.w3.org/2000/svg">
    <g clip-path="url(#clip0_491_10367)">
        <path
            d="M15.2353 1.2653C14.7821 0.812767 14.1678 0.558594 13.5273 0.558594C12.8869 0.558594 12.2726 0.812767 11.8193 1.2653L0.976677 12.108C0.666178 12.4167 0.419985 12.784 0.252342 13.1885C0.0846994 13.593 -0.00106532 14.0268 9.98748e-06 14.4646V15.8333C9.98748e-06 16.0101 0.0702479 16.1797 0.195272 16.3047C0.320296 16.4297 0.489866 16.5 0.666677 16.5H2.03534C2.47319 16.5012 2.90692 16.4156 3.31145 16.248C3.71597 16.0805 4.08325 15.8344 4.39201 15.524L15.2353 4.68064C15.6877 4.22743 15.9417 3.61328 15.9417 2.97297C15.9417 2.33266 15.6877 1.71851 15.2353 1.2653ZM3.44934 14.5813C3.07335 14.9548 2.56532 15.1651 2.03534 15.1666H1.33334V14.4646C1.33267 14.2019 1.38411 13.9416 1.4847 13.6989C1.58529 13.4562 1.73302 13.2359 1.91934 13.0506L10.148 4.82197L11.6813 6.3553L3.44934 14.5813ZM14.292 3.73797L12.6213 5.4093L11.088 3.8793L12.7593 2.20797C12.86 2.10751 12.9795 2.02786 13.111 1.97358C13.2424 1.91929 13.3833 1.89143 13.5255 1.89158C13.6678 1.89174 13.8086 1.91991 13.9399 1.97448C14.0712 2.02905 14.1905 2.10896 14.291 2.20964C14.3915 2.31032 14.4711 2.4298 14.5254 2.56126C14.5797 2.69272 14.6076 2.83359 14.6074 2.97581C14.6072 3.11804 14.5791 3.25885 14.5245 3.39019C14.4699 3.52153 14.39 3.64084 14.2893 3.7413L14.292 3.73797Z"
            fill="black" />
    </g>
    <defs>
        <clipPath id="clip0_491_10367">
            <rect fill="white" height="16" transform="translate(0 0.5)" width="16" />
        </clipPath>
    </defs>
</svg>
