<svg fill="none" height="24" viewBox="0 0 24 24" width="24" xmlns="http://www.w3.org/2000/svg">
    <circle cx="12" cy="12" fill="#FFFDFD" r="11.25" stroke="#EBD2CD" stroke-width="1.5" />
    <g clip-path="url(#clip0_182_2321)">
        <path
            d="M15.744 5.77329L8.88601 12.6313C8.62408 12.8918 8.41642 13.2017 8.27507 13.543C8.13372 13.8843 8.06147 14.2503 8.06251 14.6197V15.3752C8.06251 15.5243 8.12177 15.6674 8.22726 15.7729C8.33275 15.8784 8.47583 15.9377 8.62501 15.9377H9.38045C9.74988 15.9387 10.1158 15.8665 10.4572 15.7251C10.7985 15.5837 11.1084 15.3761 11.3689 15.1142L18.2269 8.25616C18.5556 7.92663 18.7402 7.48018 18.7402 7.01473C18.7402 6.54927 18.5556 6.10282 18.2269 5.77329C17.8926 5.45373 17.4479 5.27539 16.9854 5.27539C16.523 5.27539 16.0783 5.45373 15.744 5.77329ZM17.4315 7.46079L10.5735 14.3188C10.2563 14.634 9.82764 14.8115 9.38045 14.8127H9.18751V14.6197C9.18868 14.1725 9.36614 13.7438 9.68139 13.4267L16.5394 6.56866C16.6595 6.45389 16.8193 6.38984 16.9854 6.38984C17.1516 6.38984 17.3114 6.45389 17.4315 6.56866C17.5496 6.68708 17.6159 6.84749 17.6159 7.01473C17.6159 7.18196 17.5496 7.34237 17.4315 7.46079Z"
            fill="#EE3B34" />
        <path
            d="M18.1875 10.3007C18.0383 10.3007 17.8952 10.36 17.7898 10.4654C17.6843 10.5709 17.625 10.714 17.625 10.8632V13.6875H15.375C14.9274 13.6875 14.4982 13.8653 14.1818 14.1818C13.8653 14.4982 13.6875 14.9274 13.6875 15.375V17.625H8.0625C7.61495 17.625 7.18573 17.4472 6.86926 17.1307C6.55279 16.8143 6.375 16.3851 6.375 15.9375V8.0625C6.375 7.61495 6.55279 7.18573 6.86926 6.86926C7.18573 6.55279 7.61495 6.375 8.0625 6.375H13.1486C13.2978 6.375 13.4409 6.31574 13.5464 6.21025C13.6519 6.10476 13.7111 5.96168 13.7111 5.8125C13.7111 5.66332 13.6519 5.52024 13.5464 5.41475C13.4409 5.30926 13.2978 5.25 13.1486 5.25H8.0625C7.31685 5.25089 6.602 5.5475 6.07475 6.07475C5.5475 6.602 5.25089 7.31685 5.25 8.0625L5.25 15.9375C5.25089 16.6831 5.5475 17.398 6.07475 17.9253C6.602 18.4525 7.31685 18.7491 8.0625 18.75H14.4429C14.8125 18.7511 15.1785 18.6788 15.5199 18.5375C15.8613 18.3961 16.1713 18.1885 16.4319 17.9265L17.9259 16.4314C18.1879 16.1709 18.3956 15.861 18.5371 15.5197C18.6785 15.1784 18.7509 14.8124 18.75 14.4429V10.8632C18.75 10.714 18.6907 10.5709 18.5852 10.4654C18.4798 10.36 18.3367 10.3007 18.1875 10.3007ZM15.6366 17.1311C15.4104 17.3567 15.1245 17.5128 14.8125 17.5811V15.375C14.8125 15.2258 14.8718 15.0827 14.9773 14.9773C15.0827 14.8718 15.2258 14.8125 15.375 14.8125H17.5828C17.5132 15.1239 17.3573 15.4093 17.1328 15.636L15.6366 17.1311Z"
            fill="#EE3B34" />
    </g>
    <defs>
        <clipPath id="clip0_182_2321">
            <rect fill="white" height="13.5" transform="translate(5.25 5.25)" width="13.5" />
        </clipPath>
    </defs>
</svg>
