<svg fill="none" height="24" viewBox="0 0 24 24" width="24" xmlns="http://www.w3.org/2000/svg">
    <path
        d="M12 2C9.34784 2 6.8043 3.05357 4.92893 4.92893C3.05357 6.8043 2 9.34784 2 12C2 14.6522 3.05357 17.1957 4.92893 19.0711C6.8043 20.9464 9.34784 22 12 22C14.6522 22 17.1957 20.9464 19.0711 19.0711C20.9464 17.1957 22 14.6522 22 12C22 9.34784 20.9464 6.8043 19.0711 4.92893C17.1957 3.05357 14.6522 2 12 2Z"
        fill="#2196F3" />
    <path
        d="M17.051 17.5C17.8495 17.5 18.5 16.8495 18.5 16.051V9.949C18.5 9.1505 17.8495 8.5 17.051 8.5H6.949C6.1505 8.5 5.5 9.1505 5.5 9.949V16.0505C5.5 16.8495 6.1505 17.5 6.949 17.5"
        fill="#1976D2" />
    <path
        d="M17.051 7.5H6.949C6.1505 7.5 5.5 8.1505 5.5 8.949V15.0505C5.5 15.8495 6.1505 16.5 6.949 16.5H17.0505C17.8495 16.5 18.5 15.8495 18.5 15.051V8.949C18.5 8.1505 17.8495 7.5 17.051 7.5Z"
        fill="#ECEFF1" />
    <path
        d="M5.9005 7.94922C5.6505 8.19922 5.5 8.55072 5.5 8.90022L12 13.5002L18.5 8.90072C18.5 8.55122 18.3495 8.19972 18.0995 7.94972L12 12.3012L5.9005 7.94922Z"
        fill="#90A4AE" />
</svg>
