<svg fill="none" height="20" viewBox="0 0 20 20" width="20" xmlns="http://www.w3.org/2000/svg">
    <g clip-path="url(#clip0_181_2166)">
        <path
            d="M19.2678 7.55727L12.9469 1.2356C12.1646 0.455591 11.105 0.0175781 10.0003 0.0175781C8.89554 0.0175781 7.83589 0.455591 7.05359 1.2356L0.732754 7.55727C0.499775 7.78875 0.315062 8.06418 0.189323 8.36759C0.0635835 8.67099 -0.000681193 8.99634 0.000254207 9.32477V17.5056C0.000254207 18.1686 0.263646 18.8045 0.732487 19.2734C1.20133 19.7422 1.83721 20.0056 2.50025 20.0056H17.5003C18.1633 20.0056 18.7992 19.7422 19.268 19.2734C19.7369 18.8045 20.0003 18.1686 20.0003 17.5056V9.32477C20.0012 8.99634 19.9369 8.67099 19.8112 8.36759C19.6854 8.06418 19.5007 7.78875 19.2678 7.55727ZM12.5003 18.3389H7.50026V15.0606C7.50026 14.3976 7.76365 13.7617 8.23249 13.2928C8.70133 12.824 9.33721 12.5606 10.0003 12.5606C10.6633 12.5606 11.2992 12.824 11.768 13.2928C12.2369 13.7617 12.5003 14.3976 12.5003 15.0606V18.3389ZM18.3336 17.5056C18.3336 17.7266 18.2458 17.9386 18.0895 18.0949C17.9332 18.2511 17.7213 18.3389 17.5003 18.3389H14.1669V15.0606C14.1669 13.9555 13.7279 12.8957 12.9465 12.1143C12.1651 11.3329 11.1053 10.8939 10.0003 10.8939C8.89519 10.8939 7.83538 11.3329 7.05398 12.1143C6.27258 12.8957 5.83359 13.9555 5.83359 15.0606V18.3389H2.50025C2.27924 18.3389 2.06728 18.2511 1.911 18.0949C1.75472 17.9386 1.66692 17.7266 1.66692 17.5056V9.32477C1.66769 9.10392 1.75541 8.89225 1.91109 8.7356L8.23192 2.41643C8.70167 1.94887 9.33748 1.68639 10.0003 1.68639C10.663 1.68639 11.2988 1.94887 11.7686 2.41643L18.0894 8.7381C18.2445 8.89414 18.3322 9.10478 18.3336 9.32477V17.5056Z"
            fill="black" />
    </g>
    <defs>
        <clipPath id="clip0_181_2166">
            <rect fill="white" height="20" width="20" />
        </clipPath>
    </defs>
</svg>
