<svg fill="none" height="20" viewBox="0 0 20 20" width="20" xmlns="http://www.w3.org/2000/svg">
    <g clip-path="url(#clip0_197_2436)">
        <path
            d="M19.0239 7.6427L15.7914 4.4102C15.6342 4.2584 15.4237 4.1744 15.2052 4.1763C14.9867 4.1782 14.7777 4.26584 14.6232 4.42035C14.4687 4.57485 14.3811 4.78386 14.3792 5.00236C14.3773 5.22086 14.4613 5.43136 14.6131 5.58853L17.8456 8.82103C17.9416 8.91897 18.0255 9.02808 18.0956 9.14603C18.0831 9.14603 18.0731 9.13936 18.0606 9.13936L4.99056 9.16603C4.76955 9.16603 4.55758 9.25383 4.4013 9.41011C4.24502 9.56639 4.15723 9.77835 4.15723 9.99936C4.15723 10.2204 4.24502 10.4323 4.4013 10.5886C4.55758 10.7449 4.76955 10.8327 4.99056 10.8327L18.0556 10.806C18.0789 10.806 18.0981 10.7944 18.1206 10.7927C18.0466 10.9337 17.9529 11.0633 17.8422 11.1777L14.6097 14.4102C14.5301 14.4871 14.4666 14.579 14.423 14.6807C14.3793 14.7824 14.3563 14.8917 14.3554 15.0024C14.3544 15.113 14.3755 15.2227 14.4174 15.3252C14.4593 15.4276 14.5212 15.5206 14.5994 15.5989C14.6776 15.6771 14.7707 15.739 14.8731 15.7809C14.9755 15.8228 15.0852 15.8439 15.1959 15.8429C15.3065 15.8419 15.4159 15.819 15.5176 15.7753C15.6192 15.7316 15.7112 15.6681 15.7881 15.5885L19.0206 12.356C19.6455 11.7309 19.9965 10.8832 19.9965 9.99936C19.9965 9.11548 19.6455 8.26779 19.0206 7.6427H19.0239Z"
            fill="#EE3B34" />
        <path
            d="M5.83333 18.3333H4.16667C3.50363 18.3333 2.86774 18.0699 2.3989 17.6011C1.93006 17.1323 1.66667 16.4964 1.66667 15.8333V4.16667C1.66667 3.50363 1.93006 2.86774 2.3989 2.3989C2.86774 1.93006 3.50363 1.66667 4.16667 1.66667H5.83333C6.05435 1.66667 6.26631 1.57887 6.42259 1.42259C6.57887 1.26631 6.66667 1.05435 6.66667 0.833333C6.66667 0.61232 6.57887 0.400358 6.42259 0.244078C6.26631 0.0877974 6.05435 0 5.83333 0L4.16667 0C3.062 0.00132321 2.00296 0.440735 1.22185 1.22185C0.440735 2.00296 0.00132321 3.062 0 4.16667L0 15.8333C0.00132321 16.938 0.440735 17.997 1.22185 18.7782C2.00296 19.5593 3.062 19.9987 4.16667 20H5.83333C6.05435 20 6.26631 19.9122 6.42259 19.7559C6.57887 19.5996 6.66667 19.3877 6.66667 19.1667C6.66667 18.9457 6.57887 18.7337 6.42259 18.5774C6.26631 18.4211 6.05435 18.3333 5.83333 18.3333Z"
            fill="#EE3B34" />
    </g>
    <defs>
        <clipPath id="clip0_197_2436">
            <rect fill="white" height="20" width="20" />
        </clipPath>
    </defs>
</svg>
