<svg fill="none" height="34" viewBox="0 0 34 34" width="34" xmlns="http://www.w3.org/2000/svg">
    <rect height="33" rx="8.5" stroke="#EE3B34" width="33" x="0.5" y="0.5" />
    <g clip-path="url(#clip0_1_5)">
        <path
            d="M24.3333 16.333H9.66667C9.29848 16.333 9 16.6315 9 16.9997C9 17.3679 9.29848 17.6663 9.66667 17.6663H24.3333C24.7015 17.6663 25 17.3679 25 16.9997C25 16.6315 24.7015 16.333 24.3333 16.333Z"
            fill="#EE3B34" />
        <path
            d="M24.3333 11.667H9.66667C9.29848 11.667 9 11.9655 9 12.3337C9 12.7018 9.29848 13.0003 9.66667 13.0003H24.3333C24.7015 13.0003 25 12.7018 25 12.3337C25 11.9655 24.7015 11.667 24.3333 11.667Z"
            fill="#EE3B34" />
        <path
            d="M24.3333 21H9.66667C9.29848 21 9 21.2985 9 21.6667C9 22.0349 9.29848 22.3333 9.66667 22.3333H24.3333C24.7015 22.3333 25 22.0349 25 21.6667C25 21.2985 24.7015 21 24.3333 21Z"
            fill="#EE3B34" />
    </g>
    <defs>
        <clipPath id="clip0_1_5">
            <rect fill="white" height="16" transform="translate(9 9)" width="16" />
        </clipPath>
    </defs>
</svg>
