<svg fill="none" height="22" viewBox="0 0 20 22" width="20" xmlns="http://www.w3.org/2000/svg">
    <path
        d="M14.5835 12.8334C14.5835 13.0765 14.4869 13.3096 14.315 13.4815C14.1431 13.6534 13.9099 13.75 13.6668 13.75H6.3335C6.09038 13.75 5.85722 13.6534 5.68532 13.4815C5.51341 13.3096 5.41683 13.0765 5.41683 12.8334C5.41683 12.5902 5.51341 12.3571 5.68532 12.1852C5.85722 12.0133 6.09038 11.9167 6.3335 11.9167H13.6668C13.9099 11.9167 14.1431 12.0133 14.315 12.1852C14.4869 12.3571 14.5835 12.5902 14.5835 12.8334ZM10.9168 15.5834H6.3335C6.09038 15.5834 5.85722 15.6799 5.68532 15.8518C5.51341 16.0237 5.41683 16.2569 5.41683 16.5C5.41683 16.7431 5.51341 16.9763 5.68532 17.1482C5.85722 17.3201 6.09038 17.4167 6.3335 17.4167H10.9168C11.1599 17.4167 11.3931 17.3201 11.565 17.1482C11.7369 16.9763 11.8335 16.7431 11.8335 16.5C11.8335 16.2569 11.7369 16.0237 11.565 15.8518C11.3931 15.6799 11.1599 15.5834 10.9168 15.5834ZM19.1668 9.61127V17.4167C19.1654 18.6318 18.682 19.7968 17.8228 20.656C16.9636 21.5152 15.7986 21.9986 14.5835 22H5.41683C4.2017 21.9986 3.03676 21.5152 2.17753 20.656C1.3183 19.7968 0.834952 18.6318 0.833496 17.4167V4.58335C0.834952 3.36823 1.3183 2.20328 2.17753 1.34406C3.03676 0.48483 4.2017 0.00147666 5.41683 2.1128e-05H9.55558C10.3986 -0.00214855 11.2336 0.16281 12.0125 0.485359C12.7913 0.807908 13.4985 1.28165 14.0931 1.87919L17.2867 5.07469C17.8846 5.66891 18.3587 6.37586 18.6814 7.15458C19.0041 7.93331 19.1691 8.76832 19.1668 9.61127ZM12.7969 3.17535C12.5084 2.89592 12.1845 2.65553 11.8335 2.46035V6.41669C11.8335 6.6598 11.9301 6.89296 12.102 7.06487C12.2739 7.23678 12.507 7.33335 12.7502 7.33335H16.7065C16.5112 6.98244 16.2705 6.65882 15.9906 6.37085L12.7969 3.17535ZM17.3335 9.61127C17.3335 9.46002 17.3042 9.31519 17.2904 9.16669H12.7502C12.0208 9.16669 11.3213 8.87696 10.8056 8.36123C10.2899 7.84551 10.0002 7.14603 10.0002 6.41669V1.87644C9.85166 1.86269 9.70591 1.83335 9.55558 1.83335H5.41683C4.68748 1.83335 3.98801 2.12309 3.47229 2.63881C2.95656 3.15454 2.66683 3.85401 2.66683 4.58335V17.4167C2.66683 18.146 2.95656 18.8455 3.47229 19.3612C3.98801 19.877 4.68748 20.1667 5.41683 20.1667H14.5835C15.3128 20.1667 16.0123 19.877 16.528 19.3612C17.0438 18.8455 17.3335 18.146 17.3335 17.4167V9.61127Z"
        fill="black" />
</svg>
