<svg fill="none" height="22" viewBox="0 0 22 22" width="22" xmlns="http://www.w3.org/2000/svg">
    <path
        d="M19.1206 14.0536L15.6629 19.6957C15.2832 20.319 14.7663 20.8475 14.1516 21.241C13.5368 21.6344 12.8405 21.8825 12.1154 21.9663C11.9244 21.9889 11.7321 22.0003 11.5397 22.0002C10.5547 21.9988 9.59425 21.6931 8.78974 21.1248C7.95837 21.7476 6.93141 22.0521 5.89491 21.983C4.85842 21.9139 3.88096 21.4758 3.13963 20.7481C2.39831 20.0204 1.94216 19.0512 1.85383 18.0162C1.76551 16.9812 2.05085 15.9487 2.65815 15.1059L1.45274 13.9024C0.938025 13.3876 0.546443 12.7631 0.307318 12.0755C0.0681922 11.388 -0.0122795 10.6553 0.0719291 9.93223C0.156138 9.20918 0.402844 8.51456 0.793573 7.90037C1.1843 7.28619 1.70892 6.76837 2.32815 6.38569L7.61457 3.11685C9.0466 2.19907 10.7307 1.75409 12.4291 1.84472C14.1276 1.93534 15.7548 2.55698 17.081 3.62194L18.6017 2.10119C18.6863 2.01364 18.7874 1.9438 18.8993 1.89576C19.0111 1.84772 19.1314 1.82243 19.2531 1.82137C19.3748 1.82032 19.4955 1.84351 19.6082 1.8896C19.7208 1.93569 19.8232 2.00376 19.9093 2.08982C19.9953 2.17589 20.0634 2.27824 20.1095 2.3909C20.1556 2.50355 20.1788 2.62426 20.1777 2.74597C20.1767 2.86769 20.1514 2.98797 20.1033 3.09981C20.0553 3.21164 19.9855 3.31279 19.8979 3.39735L18.379 4.91719C19.3977 6.19341 20.0125 7.74458 20.1446 9.37218C20.2767 10.9998 19.9201 12.6298 19.1206 14.0536ZM7.39274 19.8433L3.98365 16.4333C3.71725 16.9097 3.6145 17.4604 3.69116 18.0009C3.76783 18.5413 4.01967 19.0417 4.40807 19.4253C4.79987 19.7974 5.29822 20.0378 5.83339 20.1128C6.36856 20.1877 6.91377 20.0935 7.39274 19.8433ZM16.487 5.54327C15.4691 4.51554 14.1291 3.86854 12.6912 3.71052C11.2534 3.5525 9.80489 3.89305 8.58807 4.67519L3.29249 7.94402C2.90844 8.18141 2.58308 8.5026 2.34076 8.88356C2.09845 9.26451 1.94546 9.69536 1.89326 10.1438C1.84106 10.5923 1.891 11.0467 2.03934 11.4732C2.18767 11.8996 2.43057 12.2869 2.74982 12.6062L9.43232 19.2896C9.75209 19.6097 10.1403 19.8532 10.5677 20.0017C10.9951 20.1502 11.4506 20.1998 11.9 20.1469C12.3494 20.0939 12.7809 19.9398 13.1621 19.696C13.5433 19.4523 13.8643 19.1253 14.1009 18.7396L17.543 13.125C18.2153 11.9175 18.4759 10.5239 18.2853 9.15502C18.0948 7.78618 17.4635 6.51668 16.487 5.53869V5.54327ZM17.6594 22.0002C17.4658 22.0005 17.2771 21.9396 17.1203 21.8261C16.9634 21.7126 16.8466 21.5523 16.7864 21.3683C16.7263 21.1843 16.7259 20.986 16.7854 20.8018C16.8449 20.6176 16.9612 20.4569 17.1177 20.3429C18.7227 19.1361 19.809 17.3643 20.1564 15.3864C20.1808 15.2674 20.2286 15.1543 20.297 15.0539C20.3654 14.9535 20.4532 14.8677 20.5551 14.8015C20.657 14.7353 20.771 14.69 20.8906 14.6683C21.0102 14.6465 21.1329 14.6488 21.2516 14.6749C21.3703 14.7011 21.4826 14.7505 21.582 14.8205C21.6814 14.8904 21.7658 14.9794 21.8305 15.0823C21.8952 15.1852 21.9388 15.2999 21.9587 15.4198C21.9787 15.5397 21.9746 15.6623 21.9467 15.7806C21.4975 18.193 20.1604 20.3493 18.1993 21.8242C18.0425 21.9385 17.8535 22.0002 17.6594 22.0002ZM0.916487 5.26094C0.747181 5.26018 0.581392 5.21255 0.437502 5.12333C0.293612 5.03411 0.177244 4.90678 0.101299 4.75546C0.0253551 4.60414 -0.00719769 4.43474 0.00725054 4.26605C0.0216988 4.09736 0.0825834 3.93597 0.183154 3.79977C1.67822 1.80198 3.87899 0.449649 6.33674 0.0185203C6.57499 -0.0301027 6.8228 0.0179113 7.02565 0.152C7.2285 0.286088 7.36978 0.495268 7.4184 0.73352C7.46703 0.971773 7.41901 1.21958 7.28492 1.42243C7.15084 1.62529 6.94166 1.76656 6.7034 1.81519C4.68488 2.14851 2.87378 3.25034 1.64982 4.88969C1.56492 5.00438 1.45441 5.09766 1.3271 5.16211C1.19978 5.22657 1.05918 5.2604 0.916487 5.26094Z"
        fill="black" />
</svg>
