<svg fill="none" height="20" viewBox="0 0 20 20" width="20" xmlns="http://www.w3.org/2000/svg">
    <g clip-path="url(#clip0_644_9545)">
        <path
            d="M19.196 18.1694L14.4587 13.4321C15.7496 11.8532 16.3843 9.83855 16.2315 7.8048C16.0787 5.77104 15.1501 3.87382 13.6377 2.50556C12.1253 1.1373 10.1448 0.40268 8.10598 0.453658C6.06714 0.504636 4.12587 1.33731 2.68374 2.77944C1.24161 4.22158 0.408933 6.16284 0.357955 8.20169C0.306977 10.2405 1.04159 12.221 2.40986 13.7334C3.77812 15.2458 5.67534 16.1744 7.7091 16.3272C9.74285 16.4801 11.7575 15.8453 13.3364 14.5544L18.0737 19.2917C18.2234 19.4362 18.4239 19.5162 18.632 19.5144C18.8401 19.5126 19.0391 19.4291 19.1863 19.282C19.3334 19.1348 19.4169 18.9358 19.4187 18.7277C19.4205 18.5196 19.3405 18.3191 19.196 18.1694ZM8.31738 14.7623C7.06163 14.7623 5.83407 14.3899 4.78995 13.6923C3.74583 12.9946 2.93203 12.003 2.45148 10.8428C1.97092 9.68265 1.84519 8.40604 2.09017 7.17441C2.33516 5.94279 2.93986 4.81147 3.82781 3.92352C4.71577 3.03556 5.84709 2.43086 7.07871 2.18588C8.31034 1.94089 9.58695 2.06662 10.7471 2.54718C11.9073 3.02774 12.8989 3.84153 13.5966 4.88565C14.2942 5.92977 14.6666 7.15733 14.6666 8.41308C14.6647 10.0964 13.9952 11.7103 12.8049 12.9006C11.6146 14.0909 10.0007 14.7604 8.31738 14.7623Z"
            fill="#EE3B34" />
    </g>
    <defs>
        <clipPath id="clip0_644_9545">
            <rect fill="white" height="19.0476" transform="translate(0.380859 0.476074)"
                width="19.0476" />
        </clipPath>
    </defs>
</svg>
