<svg fill="none" height="18" viewBox="0 0 18 18" width="18" xmlns="http://www.w3.org/2000/svg">
    <g clip-path="url(#clip0_181_2181)">
        <path
            d="M14.4999 11.0004C13.9328 11.0009 13.3744 11.1393 12.8728 11.4038C12.3711 11.6683 11.9414 12.0508 11.6206 12.5184L6.73888 10.3142C7.08562 9.47691 7.08696 8.53645 6.74263 7.69819L11.6176 5.48269C12.093 6.17025 12.7991 6.66466 13.6078 6.87622C14.4165 7.08778 15.2743 7.00249 16.0255 6.63581C16.7767 6.26913 17.3716 5.64536 17.7023 4.87764C18.033 4.10991 18.0775 3.24909 17.8279 2.45132C17.5783 1.65354 17.051 0.971658 16.3417 0.529352C15.6324 0.0870461 14.788 -0.086385 13.9618 0.0405177C13.1356 0.16742 12.3822 0.586251 11.8383 1.22104C11.2944 1.85582 10.9961 2.66452 10.9974 3.50044C11.0006 3.69829 11.0206 3.8955 11.0574 4.08994L5.87488 6.44494C5.37714 5.9786 4.75401 5.66781 4.08206 5.55076C3.41011 5.4337 2.7186 5.51547 2.09249 5.78603C1.46638 6.05658 0.932927 6.50414 0.55768 7.07371C0.182433 7.64328 -0.0182683 8.31005 -0.0197669 8.99212C-0.0212655 9.67419 0.176504 10.3418 0.549244 10.9131C0.921984 11.4843 1.45346 11.9342 2.07838 12.2075C2.7033 12.4808 3.39444 12.5656 4.0669 12.4515C4.73936 12.3374 5.36384 12.0293 5.86363 11.5652L11.0596 13.9112C11.0235 14.1054 11.0037 14.3024 11.0004 14.4999C11.0002 15.1923 11.2054 15.8691 11.59 16.4449C11.9745 17.0206 12.5212 17.4693 13.1608 17.7344C13.8004 17.9994 14.5043 18.0688 15.1833 17.9337C15.8624 17.7987 16.4861 17.4653 16.9757 16.9757C17.4652 16.4862 17.7986 15.8624 17.9337 15.1834C18.0687 14.5043 17.9993 13.8005 17.7343 13.1609C17.4693 12.5212 17.0205 11.9746 16.4448 11.59C15.8691 11.2055 15.1922 11.0003 14.4999 11.0004ZM14.4999 1.50019C14.8955 1.50004 15.2823 1.61722 15.6114 1.83692C15.9404 2.05662 16.1969 2.36897 16.3484 2.73445C16.4999 3.09994 16.5396 3.50215 16.4625 3.89021C16.3854 4.27827 16.195 4.63475 15.9153 4.91456C15.6356 5.19438 15.2792 5.38496 14.8911 5.4622C14.5031 5.53944 14.1009 5.49987 13.7353 5.3485C13.3698 5.19713 13.0574 4.94075 12.8375 4.61179C12.6177 4.28284 12.5004 3.89608 12.5004 3.50044C12.5008 2.97019 12.7115 2.46176 13.0864 2.08675C13.4613 1.71174 13.9696 1.50078 14.4999 1.50019ZM3.50038 11.0004C3.10474 11.0006 2.71794 10.8834 2.3889 10.6637C2.05986 10.444 1.80337 10.1317 1.65186 9.76617C1.50035 9.40068 1.46063 8.99848 1.53773 8.61042C1.61482 8.22236 1.80527 7.86588 2.08498 7.58606C2.36469 7.30625 2.7211 7.11567 3.10913 7.03843C3.49716 6.96118 3.89938 7.00075 4.26492 7.15212C4.63046 7.3035 4.9429 7.55987 5.16273 7.88883C5.38255 8.21778 5.49988 8.60454 5.49988 9.00019C5.49929 9.53037 5.28846 10.0387 4.91363 10.4137C4.5388 10.7886 4.03057 10.9996 3.50038 11.0004ZM14.4999 16.5002C14.1043 16.5002 13.7175 16.3829 13.3886 16.1631C13.0597 15.9433 12.8033 15.6309 12.6519 15.2654C12.5005 14.8999 12.4609 14.4977 12.5381 14.1097C12.6152 13.7217 12.8058 13.3653 13.0855 13.0855C13.3652 12.8058 13.7216 12.6153 14.1097 12.5381C14.4977 12.4609 14.8998 12.5006 15.2653 12.6519C15.6308 12.8033 15.9432 13.0597 16.163 13.3887C16.3828 13.7176 16.5001 14.1043 16.5001 14.4999C16.4997 15.0303 16.2889 15.5389 15.9138 15.9139C15.5388 16.2889 15.0303 16.4998 14.4999 16.5002Z"
            fill="#374957" />
    </g>
    <defs>
        <clipPath id="clip0_181_2181">
            <rect fill="white" height="18" width="18" />
        </clipPath>
    </defs>
</svg>
