<svg fill="none" height="20" viewBox="0 0 20 20" width="20" xmlns="http://www.w3.org/2000/svg">
    <path
        d="M4.37481 4.375C4.37481 4.20924 4.30896 4.05027 4.19175 3.93306C4.07454 3.81585 3.91557 3.75 3.74981 3.75C3.58405 3.75 3.42508 3.81585 3.30787 3.93306C3.19066 4.05027 3.12481 4.20924 3.12481 4.375V15.3663L1.69231 13.9325C1.6342 13.8744 1.56522 13.8283 1.48929 13.7968C1.41337 13.7654 1.33199 13.7492 1.24981 13.7492C1.16763 13.7492 1.08626 13.7654 1.01033 13.7968C0.934409 13.8283 0.865423 13.8744 0.807313 13.9325C0.749203 13.9906 0.703108 14.0596 0.671659 14.1355C0.64021 14.2114 0.624023 14.2928 0.624023 14.375C0.624023 14.4572 0.64021 14.5386 0.671659 14.6145C0.703108 14.6904 0.749203 14.7594 0.807313 14.8175L3.30731 17.3162L3.31606 17.325C3.43341 17.4394 3.59121 17.5028 3.75511 17.5014C3.919 17.5 4.0757 17.4339 4.19106 17.3175L6.69106 14.8175C6.80842 14.7003 6.87442 14.5413 6.87454 14.3754C6.87465 14.2096 6.80888 14.0505 6.69169 13.9331C6.5745 13.8158 6.41548 13.7498 6.24963 13.7497C6.08378 13.7495 5.92467 13.8153 5.80731 13.9325L4.37481 15.3663V4.375ZM9.37481 5C9.20905 5 9.05008 4.93415 8.93287 4.81694C8.81566 4.69973 8.74981 4.54076 8.74981 4.375C8.74981 4.20924 8.81566 4.05027 8.93287 3.93306C9.05008 3.81585 9.20905 3.75 9.37481 3.75H10.6248C10.7906 3.75 10.9495 3.81585 11.0668 3.93306C11.184 4.05027 11.2498 4.20924 11.2498 4.375C11.2498 4.54076 11.184 4.69973 11.0668 4.81694C10.9495 4.93415 10.7906 5 10.6248 5H9.37481ZM9.37481 8.75C9.20905 8.75 9.05008 8.68415 8.93287 8.56694C8.81566 8.44973 8.74981 8.29076 8.74981 8.125C8.74981 7.95924 8.81566 7.80027 8.93287 7.68306C9.05008 7.56585 9.20905 7.5 9.37481 7.5H13.1248C13.2906 7.5 13.4495 7.56585 13.5668 7.68306C13.684 7.80027 13.7498 7.95924 13.7498 8.125C13.7498 8.29076 13.684 8.44973 13.5668 8.56694C13.4495 8.68415 13.2906 8.75 13.1248 8.75H9.37481ZM9.37481 12.5C9.20905 12.5 9.05008 12.4342 8.93287 12.3169C8.81566 12.1997 8.74981 12.0408 8.74981 11.875C8.74981 11.7092 8.81566 11.5503 8.93287 11.4331C9.05008 11.3158 9.20905 11.25 9.37481 11.25H15.6248C15.7906 11.25 15.9495 11.3158 16.0668 11.4331C16.184 11.5503 16.2498 11.7092 16.2498 11.875C16.2498 12.0408 16.184 12.1997 16.0668 12.3169C15.9495 12.4342 15.7906 12.5 15.6248 12.5H9.37481ZM8.74981 15.625C8.74981 15.7908 8.81566 15.9497 8.93287 16.0669C9.05008 16.1842 9.20905 16.25 9.37481 16.25H18.1248C18.2906 16.25 18.4495 16.1842 18.5668 16.0669C18.684 15.9497 18.7498 15.7908 18.7498 15.625C18.7498 15.4592 18.684 15.3003 18.5668 15.1831C18.4495 15.0658 18.2906 15 18.1248 15H9.37481C9.20905 15 9.05008 15.0658 8.93287 15.1831C8.81566 15.3003 8.74981 15.4592 8.74981 15.625Z"
        fill="#FFFDFD" />
</svg>
