<svg fill="none" height="20" viewBox="0 0 20 20" width="20" xmlns="http://www.w3.org/2000/svg">
    <path
        d="M17.5 10.3532V9.1665C17.5 7.17738 16.7098 5.26973 15.3033 3.8632C13.8968 2.45668 11.9891 1.6665 10 1.6665C8.01088 1.6665 6.10322 2.45668 4.6967 3.8632C3.29018 5.26973 2.5 7.17738 2.5 9.1665V10.3532C1.62597 10.738 0.910667 11.4115 0.473851 12.2607C0.0370351 13.11 -0.094783 14.0835 0.100464 15.0184C0.295711 15.9532 0.806172 16.7926 1.54639 17.396C2.28661 17.9995 3.21166 18.3303 4.16667 18.3332C4.60869 18.3332 5.03262 18.1576 5.34518 17.845C5.65774 17.5325 5.83333 17.1085 5.83333 16.6665V11.6665C5.83333 11.2245 5.65774 10.8006 5.34518 10.488C5.03262 10.1754 4.60869 9.99984 4.16667 9.99984V9.1665C4.16667 7.61941 4.78125 6.13568 5.87521 5.04171C6.96917 3.94775 8.4529 3.33317 10 3.33317C11.5471 3.33317 13.0308 3.94775 14.1248 5.04171C15.2188 6.13568 15.8333 7.61941 15.8333 9.1665V9.99984C15.3913 9.99984 14.9674 10.1754 14.6548 10.488C14.3423 10.8006 14.1667 11.2245 14.1667 11.6665V16.6665H11.6667C11.4457 16.6665 11.2337 16.7543 11.0774 16.9106C10.9211 17.0669 10.8333 17.2788 10.8333 17.4998C10.8333 17.7208 10.9211 17.9328 11.0774 18.0891C11.2337 18.2454 11.4457 18.3332 11.6667 18.3332H15.8333C16.7883 18.3303 17.7134 17.9995 18.4536 17.396C19.1938 16.7926 19.7043 15.9532 19.8995 15.0184C20.0948 14.0835 19.963 13.11 19.5261 12.2607C19.0893 11.4115 18.374 10.738 17.5 10.3532ZM4.16667 16.6665C3.50362 16.6665 2.86774 16.4031 2.3989 15.9343C1.93006 15.4654 1.66667 14.8295 1.66667 14.1665C1.66667 13.5035 1.93006 12.8676 2.3989 12.3987C2.86774 11.9299 3.50362 11.6665 4.16667 11.6665V16.6665ZM15.8333 16.6665V11.6665C16.4964 11.6665 17.1323 11.9299 17.6011 12.3987C18.0699 12.8676 18.3333 13.5035 18.3333 14.1665C18.3333 14.8295 18.0699 15.4654 17.6011 15.9343C17.1323 16.4031 16.4964 16.6665 15.8333 16.6665Z"
        fill="black" />
</svg>
