<svg fill="none" height="16" viewBox="0 0 15 16" width="15" xmlns="http://www.w3.org/2000/svg">
    <g clip-path="url(#clip0_546_23321)">
        <path
            d="M14.3888 10.3749L14.3907 10.2991C14.3948 10.038 14.3121 9.783 14.1555 9.57405C13.999 9.3651 13.7775 9.21405 13.5259 9.14462C13.281 9.07088 13.0671 8.91873 12.9172 8.71157C12.7672 8.50441 12.6895 8.25372 12.6959 7.99807C12.7024 7.74241 12.7927 7.49596 12.9529 7.29663C13.1131 7.0973 13.3344 6.95613 13.5826 6.89484C13.8375 6.83819 14.0663 6.6985 14.2332 6.49772C14.4001 6.29693 14.4955 6.04641 14.5046 5.78549L14.5065 5.70968C14.5251 4.93664 14.2363 4.18779 13.7035 3.62739C13.1707 3.06699 12.4373 2.74079 11.6643 2.72036L2.33398 2.48489C1.87 2.47318 1.42037 2.64626 1.084 2.96607C0.747639 3.28587 0.552093 3.7262 0.540383 4.19018L0.509035 5.43228C0.504929 5.69333 0.587633 5.94834 0.744161 6.15729C0.90069 6.36624 1.12218 6.51729 1.37385 6.58672C1.61873 6.66046 1.83259 6.81261 1.98254 7.01977C2.13248 7.22693 2.21021 7.47762 2.20376 7.73327C2.19731 7.98892 2.10703 8.23538 1.94683 8.43471C1.78662 8.63404 1.56535 8.77521 1.31707 8.8365C1.06222 8.89315 0.833392 9.03283 0.666522 9.23362C0.499654 9.43441 0.404191 9.68493 0.395125 9.94585L0.363778 11.188C0.352069 11.6519 0.525154 12.1016 0.844959 12.4379C1.16476 12.7743 1.60509 12.9698 2.06907 12.9815L11.3994 13.217C12.1725 13.2356 12.9213 12.9468 13.4817 12.414C14.0421 11.8812 14.3683 11.1479 14.3888 10.3749V10.3749ZM1.53007 11.2174L1.59835 9.96863C2.09666 9.84415 2.53997 9.55873 2.85954 9.15664C3.17911 8.75455 3.35708 8.25825 3.36585 7.7447C3.37462 7.23116 3.2137 6.72907 2.90805 6.3163C2.6024 5.90353 2.16909 5.60314 1.67533 5.46172L1.70668 4.21961C1.71058 4.06495 1.77576 3.91818 1.88788 3.81158C2.00001 3.70497 2.14988 3.64728 2.30454 3.65118L4.63713 3.71005L4.6077 4.87635C4.6038 5.03101 4.66149 5.18088 4.76809 5.293C4.87469 5.40512 5.02147 5.47031 5.17613 5.47421C5.33079 5.47811 5.48067 5.42042 5.59279 5.31382C5.70491 5.20722 5.77009 5.06044 5.77399 4.90578L5.80343 3.73948L11.6349 3.88666C12.0989 3.89836 12.5392 4.09391 12.859 4.43027C13.1788 4.76664 13.3519 5.21627 13.3402 5.68025L13.3014 5.76271C12.8061 5.88689 12.365 6.16972 12.0455 6.56803C11.726 6.96634 11.5456 7.45826 11.5319 7.96869C11.5232 8.48614 11.6839 8.99226 11.9893 9.41003C12.2948 9.8278 12.7283 10.1343 13.224 10.283L13.2225 10.3454C13.2108 10.8094 13.0152 11.2497 12.6788 11.5695C12.3425 11.8893 11.8928 12.0624 11.4289 12.0507L5.59739 11.9036L5.62682 10.7373C5.63073 10.5826 5.57303 10.4327 5.46643 10.3206C5.35983 10.2085 5.21305 10.1433 5.05839 10.1394C4.90373 10.1355 4.75386 10.1932 4.64173 10.2998C4.52961 10.4064 4.46443 10.5532 4.46053 10.7078L4.43109 11.8741L2.0985 11.8152C1.94384 11.8113 1.79707 11.7462 1.69047 11.634C1.58386 11.5219 1.52617 11.372 1.53007 11.2174Z"
            fill="#A78227" />
        <path
            d="M5.68534 8.40471L5.71478 7.23842C5.71868 7.08376 5.66098 6.93388 5.55438 6.82176C5.44778 6.70964 5.301 6.64446 5.14634 6.64056C4.99168 6.63665 4.8418 6.69435 4.72968 6.80095C4.61756 6.90755 4.55238 7.05433 4.54847 7.20899L4.51904 8.37528C4.51514 8.52994 4.57283 8.67981 4.67943 8.79194C4.78603 8.90406 4.93281 8.96924 5.08747 8.97314C5.24213 8.97705 5.39201 8.91935 5.50413 8.81275C5.61626 8.70615 5.68144 8.55937 5.68534 8.40471Z"
            fill="#A78227" />
    </g>
    <defs>
        <clipPath id="clip0_546_23321">
            <rect fill="white" height="14" transform="translate(14.624 1.04443) rotate(91.4457)"
                width="14" />
        </clipPath>
    </defs>
</svg>
