<svg fill="none" height="14" viewBox="0 0 14 14" width="14" xmlns="http://www.w3.org/2000/svg">
    <g clip-path="url(#clip0_856_8625)">
        <path
            d="M13.4165 6.41667C13.2618 6.41667 13.1134 6.47813 13.004 6.58752C12.8946 6.69692 12.8332 6.84529 12.8332 7C12.8379 8.35641 12.3714 9.67236 11.5134 10.7229C10.6554 11.7735 9.45913 12.4934 8.12911 12.7597C6.79908 13.026 5.41786 12.8221 4.22153 12.1828C3.0252 11.5436 2.08802 10.5087 1.57019 9.25498C1.05236 8.00129 0.986026 6.60668 1.38252 5.3095C1.77902 4.01233 2.61373 2.89313 3.74399 2.14321C4.87425 1.39328 6.22988 1.05919 7.57917 1.19803C8.92847 1.33688 10.1877 1.94004 11.1415 2.90442C11.1223 2.90965 11.1028 2.91374 11.0832 2.91667H9.33317C9.17846 2.91667 9.03009 2.97813 8.92069 3.08752C8.8113 3.19692 8.74984 3.34529 8.74984 3.5C8.74984 3.65471 8.8113 3.80308 8.92069 3.91248C9.03009 4.02188 9.17846 4.08333 9.33317 4.08333H11.0832C11.5473 4.08333 11.9924 3.89896 12.3206 3.57077C12.6488 3.24258 12.8332 2.79746 12.8332 2.33333V0.583333C12.8332 0.428624 12.7717 0.280251 12.6623 0.170854C12.5529 0.0614582 12.4045 0 12.2498 0C12.0951 0 11.9468 0.0614582 11.8374 0.170854C11.728 0.280251 11.6665 0.428624 11.6665 0.583333V1.78792C10.4722 0.720143 8.94754 0.0945971 7.34742 0.0158099C5.74729 -0.0629774 4.1686 0.409767 2.87513 1.35505C1.58167 2.30032 0.651792 3.66087 0.240887 5.20934C-0.170019 6.75781 -0.0370609 8.4004 0.617544 9.86262C1.27215 11.3248 2.40874 12.5181 3.8374 13.2431C5.26606 13.968 6.90024 14.1807 8.46686 13.8456C10.0335 13.5104 11.4376 12.6478 12.4447 11.4019C13.4518 10.1559 14.0007 8.60206 13.9998 7C13.9998 6.84529 13.9384 6.69692 13.829 6.58752C13.7196 6.47813 13.5712 6.41667 13.4165 6.41667Z"
            fill="#A78227" />
        <path
            d="M7.00033 3.5C6.84562 3.5 6.69724 3.56146 6.58785 3.67085C6.47845 3.78025 6.41699 3.92862 6.41699 4.08333V7C6.41703 7.1547 6.47851 7.30305 6.58791 7.41242L8.33791 9.16242C8.44793 9.26868 8.59528 9.32747 8.74823 9.32614C8.90117 9.32481 9.04748 9.26347 9.15564 9.15531C9.26379 9.04716 9.32514 8.90085 9.32647 8.7479C9.3278 8.59495 9.269 8.4476 9.16274 8.33758L7.58366 6.7585V4.08333C7.58366 3.92862 7.5222 3.78025 7.4128 3.67085C7.30341 3.56146 7.15503 3.5 7.00033 3.5Z"
            fill="#A78227" />
    </g>
    <defs>
        <clipPath id="clip0_856_8625">
            <rect fill="white" height="14" width="14" />
        </clipPath>
    </defs>
</svg>
