<svg fill="none" height="22" viewBox="0 0 22 22" width="22" xmlns="http://www.w3.org/2000/svg">
    <path
        d="M14.5195 0.44043L15.3995 6.60043L17.3761 4.95215C18.8733 6.52867 19.7995 8.64913 19.7995 11.0004C19.7995 15.8708 15.8699 19.8004 10.9995 19.8004C6.12915 19.8004 2.19954 15.8708 2.19954 11.0004C2.20119 10.8838 2.17965 10.768 2.13616 10.6598C2.09268 10.5516 2.02812 10.4531 1.94624 10.3701C1.86436 10.287 1.7668 10.2211 1.65921 10.1761C1.55162 10.1311 1.43616 10.1079 1.31954 10.1079C1.20292 10.1079 1.08746 10.1311 0.979874 10.1761C0.872287 10.2211 0.774719 10.287 0.69284 10.3701C0.610961 10.4531 0.546404 10.5516 0.50292 10.6598C0.459436 10.768 0.437892 10.8838 0.439541 11.0004C0.439541 16.822 5.17793 21.5604 10.9995 21.5604C16.8212 21.5604 21.5595 16.822 21.5595 11.0004C21.5595 8.23049 20.4785 5.71191 18.7288 3.82637L20.6795 2.20043L14.5195 0.44043ZM9.87892 0.500586L9.79298 0.512617L9.14673 0.966367L9.12439 1.75527L9.74314 2.24512L10.0525 2.25371L10.1402 2.24168L10.7847 1.78793L10.807 0.999023L10.19 0.50918L9.87892 0.500586ZM6.42595 1.52324L6.13376 1.62809L6.05814 1.67105L5.61985 2.32762L5.88454 3.07012L6.63735 3.30387L6.92954 3.20074L7.00689 3.15605L7.44345 2.49949L7.17876 1.75699L6.42595 1.52324ZM4.09017 3.79199L3.30298 3.8384L3.06579 4.03949L3.01079 4.10652L2.83204 4.8748L3.34079 5.47809L4.12798 5.42996L4.36517 5.23059L4.42017 5.16356L4.59892 4.39527L4.09017 3.79199ZM10.1195 5.72043V7.14527C8.90074 7.41631 8.1361 8.23968 8.1361 9.39512C8.1361 10.5435 8.81034 11.2584 10.1831 11.5453L11.1645 11.755C12.0885 11.9538 12.4639 12.2301 12.4639 12.7106C12.4639 13.2799 11.8841 13.6765 11.0649 13.6765C10.1769 13.6765 9.56008 13.2852 9.48704 12.6745H7.96423C8.01175 13.837 8.82506 14.6316 10.1195 14.8745V16.2804H11.8795V14.8711C13.2277 14.615 14.0349 13.7713 14.0349 12.5129C14.0349 11.3443 13.3837 10.6899 11.8692 10.3714L10.96 10.1789C10.0774 9.99143 9.71907 9.72398 9.71907 9.25934C9.71907 8.6847 10.2403 8.31918 11.0288 8.31918C11.7908 8.31918 12.3445 8.71602 12.4175 9.3109H13.9008C13.8621 8.21706 13.0675 7.4076 11.8795 7.14184V5.72043H10.1195ZM1.9486 6.80496L1.22845 7.12809L1.07892 7.39965L1.0497 7.48215L1.15626 8.26418L1.84548 8.64574L2.56563 8.32262L2.71517 8.05106L2.74439 7.96856L2.63782 7.18652L1.9486 6.80496Z"
        fill="black" />
</svg>
