<svg fill="none" height="22" viewBox="0 0 22 22" width="22" xmlns="http://www.w3.org/2000/svg">
    <path
        d="M19.1 1.83352V3.51685H17.5667V1.83352V1.63883L17.3784 1.68848L6.95133 4.43848L6.98958 4.73352H19.25C20.6746 4.73352 21.85 5.90887 21.85 7.33352V19.2502C21.85 20.6748 20.6746 21.8502 19.25 21.8502H2.75C1.32536 21.8502 0.15 20.6748 0.15 19.2502V6.64602C0.15 5.46874 0.962771 4.42504 2.1005 4.12706L2.10072 4.12701L16.9947 0.202999C16.995 0.202921 16.9953 0.202844 16.9956 0.202767C17.1266 0.170113 17.2618 0.153528 17.391 0.150158C18.2944 0.137485 19.1 0.888902 19.1 1.83352ZM19.25 6.26685H2.75C2.14795 6.26685 1.68333 6.73147 1.68333 7.33352V19.2502C1.68333 19.8522 2.14795 20.3169 2.75 20.3169H19.25C19.852 20.3169 20.3167 19.8522 20.3167 19.2502V7.33352C20.3167 6.73147 19.852 6.26685 19.25 6.26685ZM15.7333 13.2919C15.7333 12.6156 16.2821 12.0669 16.9583 12.0669C17.6346 12.0669 18.1833 12.6156 18.1833 13.2919C18.1833 13.9681 17.6346 14.5169 16.9583 14.5169C16.2821 14.5169 15.7333 13.9681 15.7333 13.2919Z"
        fill="black" stroke="white" stroke-width="0.3" />
</svg>
