<svg fill="none" height="24" viewBox="0 0 24 24" width="24" xmlns="http://www.w3.org/2000/svg">
    <path
        d="M2.43408 21.6515L3.78108 16.734C2.95008 15.295 2.51308 13.662 2.51358 11.9895C2.51608 6.757 6.77408 2.5 12.0071 2.5C14.5466 2.501 16.9296 3.4895 18.7221 5.283C20.5141 7.077 21.5011 9.461 21.5001 11.997C21.4981 17.2295 17.2391 21.487 12.0071 21.487C12.0066 21.487 12.0071 21.487 12.0071 21.487H12.0031C10.4146 21.4865 8.85308 21.088 7.46658 20.3315L2.43408 21.6515Z"
        fill="#FFFDFD" />
    <path
        d="M2.43386 21.9015C2.36786 21.9015 2.30386 21.8755 2.25636 21.8275C2.19386 21.764 2.16936 21.6715 2.19286 21.586L3.51236 16.768C2.69436 15.315 2.26286 13.665 2.26386 11.99C2.26586 6.619 6.63636 2.25 12.0069 2.25C14.6119 2.251 17.0594 3.2655 18.8989 5.1065C20.7384 6.948 21.7509 9.395 21.7499 11.997C21.7479 17.3675 17.3769 21.737 12.0069 21.737C10.4124 21.7365 8.83486 21.343 7.43486 20.5985L2.49736 21.893C2.47636 21.899 2.45536 21.9015 2.43386 21.9015Z"
        fill="#FFFDFD" />
    <path
        d="M12.0068 2.5C14.5463 2.501 16.9293 3.4895 18.7218 5.283C20.5138 7.077 21.5008 9.461 21.4998 11.997C21.4978 17.2295 17.2388 21.487 12.0068 21.487H12.0028C10.4143 21.4865 8.8528 21.088 7.4663 20.3315L2.4338 21.6515L3.7808 16.734C2.9498 15.295 2.5128 13.662 2.5133 11.9895C2.5158 6.757 6.7738 2.5 12.0068 2.5ZM12.0068 2C6.4988 2 2.0158 6.481 2.0133 11.9895C2.0128 13.673 2.4378 15.332 3.2438 16.8005L1.9513 21.52C1.9043 21.6925 1.9523 21.8765 2.0783 22.0035C2.1733 22.0995 2.3018 22.152 2.4338 22.152C2.4763 22.152 2.5188 22.1465 2.5608 22.1355L7.4043 20.8655C8.8183 21.5995 10.4033 21.987 12.0028 21.9875C17.5148 21.9875 21.9978 17.506 22.0003 11.9975C22.0013 9.328 20.9628 6.818 19.0763 4.93C17.1888 3.0415 14.6783 2.001 12.0068 2Z"
        fill="#CFD8DC" />
    <path
        d="M17.5882 6.41603C16.0982 4.92503 14.1177 4.10353 12.0097 4.10303C7.65771 4.10303 4.11821 7.64103 4.11621 11.99C4.11571 13.4805 4.53271 14.9315 5.32271 16.188L5.51071 16.4865L4.71321 19.397L7.69971 18.614L7.98821 18.785C9.19921 19.504 10.5882 19.884 12.0042 19.8845H12.0072C16.3562 19.8845 19.8957 16.346 19.8972 11.9965C19.8977 9.88903 19.0782 7.90703 17.5882 6.41603Z"
        fill="#40C351" />
    <path clip-rule="evenodd" d="M9.63412 8.02244C9.45662 7.62744 9.26962 7.61944 9.10012 7.61244C8.96162 7.60644 8.80362 7.60694 8.64562 7.60694C8.48762 7.60694 8.23062 7.66644 8.01312 7.90394C7.79562 8.14144 7.18262 8.71494 7.18262 9.88194C7.18262 11.0489 8.03262 12.1769 8.15112 12.3349C8.26962 12.4929 9.79212 14.9644 12.2031 15.9154C14.2066 16.7054 14.6146 16.5484 15.0496 16.5089C15.4846 16.4694 16.4531 15.9354 16.6506 15.3814C16.8481 14.8274 16.8481 14.3529 16.7891 14.2539C16.7296 14.1549 16.5716 14.0959 16.3346 13.9769C16.0976 13.8579 14.9311 13.2844 14.7136 13.2054C14.4961 13.1264 14.3381 13.0869 14.1796 13.3244C14.0216 13.5614 13.5671 14.0959 13.4286 14.2539C13.2901 14.4124 13.1516 14.4324 12.9146 14.3134C12.6776 14.1944 11.9136 13.9444 11.0071 13.1364C10.3021 12.5079 9.82612 11.7314 9.68762 11.4939C9.54912 11.2569 9.67262 11.1284 9.79162 11.0099C9.89812 10.9034 10.0286 10.7329 10.1476 10.5944C10.2661 10.4559 10.3056 10.3569 10.3846 10.1989C10.4636 10.0404 10.4241 9.90194 10.3646 9.78344C10.3061 9.66444 9.84512 8.49144 9.63412 8.02244Z"
        fill="#FFFDFD"
        fill-rule="evenodd" />
</svg>
